<?xml version="1.0" standalone="no"?>
<!DOCTYPE svg PUBLIC "-//W3C//DTD SVG 20010904//EN"
 "http://www.w3.org/TR/2001/REC-SVG-20010904/DTD/svg10.dtd">
<svg version="1.0" xmlns="http://www.w3.org/2000/svg"
 width="1280.000000pt" height="1037.000000pt" viewBox="0 0 1280.000000 1037.000000"
 preserveAspectRatio="xMidYMid meet">
<metadata>
Created by potrace 1.15, written by Peter Selinger 2001-2017
</metadata>
<g transform="translate(0.000000,1037.000000) scale(0.100000,-0.100000)"
fill="#000000" stroke="none">
<path d="M5965 10356 c-72 -17 -147 -61 -220 -128 -78 -72 -96 -99 -135 -213
-18 -50 -42 -106 -55 -126 -13 -20 -82 -89 -153 -153 -146 -130 -177 -172
-108 -146 l27 10 -20 -29 c-12 -16 -81 -81 -154 -144 -246 -214 -319 -333
-289 -475 13 -60 8 -72 -34 -72 -39 0 -121 -50 -149 -90 -27 -38 -67 -150 -58
-160 3 -3 12 4 22 16 9 11 29 29 44 38 37 25 57 8 57 -49 0 -34 -5 -46 -25
-59 -32 -21 -73 -93 -90 -156 -7 -27 -11 -50 -9 -50 2 0 17 15 33 32 46 51 45
28 -1 -43 -75 -116 -96 -212 -64 -299 10 -29 10 -44 -2 -85 -20 -69 -12 -152
21 -215 32 -61 31 -57 10 -63 -12 -3 -3 -10 29 -25 68 -30 148 -146 133 -192
-8 -24 -55 -40 -124 -41 l-56 -1 40 -19 c65 -30 151 -22 181 19 7 9 16 38 20
65 8 55 17 58 89 22 60 -29 85 -50 119 -100 30 -43 33 -81 10 -113 -9 -13 -14
-26 -11 -28 8 -8 54 25 63 44 4 9 8 91 8 182 1 157 2 168 28 222 25 55 115
164 126 153 3 -3 -3 -14 -14 -26 l-19 -21 40 16 c22 9 69 45 105 80 56 55 109
91 98 69 -43 -95 -170 -331 -196 -367 -26 -35 -31 -48 -18 -43 9 4 23 7 28 7
6 0 64 54 128 120 142 147 168 157 115 42 -14 -30 -25 -62 -25 -71 0 -22 35
-60 67 -72 37 -14 40 -3 8 31 -24 25 -27 35 -22 69 5 43 65 137 82 130 6 -2
10 -64 9 -154 -1 -173 -10 -205 -95 -346 -120 -199 -142 -265 -143 -429 -1
-136 14 -195 80 -319 l44 -84 -87 7 c-49 4 -137 11 -198 16 -60 6 -231 13
-380 16 -443 11 -753 -23 -1035 -112 -101 -31 -161 -61 -255 -124 -110 -74
-168 -100 -251 -110 -201 -26 -368 45 -614 261 -289 252 -371 286 -670 277
-128 -4 -155 -8 -232 -35 -167 -58 -344 -178 -519 -353 -129 -129 -186 -209
-229 -320 -59 -156 -74 -174 -242 -312 -95 -78 -135 -124 -264 -307 -65 -92
-110 -135 -262 -253 -213 -165 -290 -269 -300 -406 -16 -228 130 -418 356
-462 119 -24 203 0 388 112 125 75 209 108 276 108 45 0 121 41 253 135 172
123 322 262 616 571 281 295 366 374 380 353 5 -8 9 -26 9 -41 0 -23 5 -28 23
-28 18 0 49 30 123 116 148 175 265 260 409 298 l59 15 72 -44 c88 -55 139
-110 154 -166 15 -56 8 -90 -45 -207 -70 -155 -80 -229 -80 -597 1 -264 4
-335 24 -480 53 -397 101 -578 214 -804 73 -147 82 -170 85 -230 3 -63 1 -71
-53 -181 -35 -70 -60 -134 -64 -164 l-6 -50 -139 -83 c-253 -152 -331 -232
-362 -371 -14 -64 -16 -111 -11 -296 3 -122 11 -301 17 -400 14 -218 4 -370
-41 -623 -21 -117 -33 -212 -33 -278 -1 -89 2 -105 26 -150 14 -28 52 -74 84
-104 206 -190 213 -203 179 -346 -31 -127 -13 -196 73 -278 28 -27 54 -57 57
-68 6 -17 17 -19 145 -19 l138 0 -14 62 c-28 124 -64 238 -152 483 -130 360
-163 493 -182 712 -18 213 12 457 81 665 91 273 280 553 513 759 88 78 109
103 160 192 68 118 134 214 189 274 56 61 162 130 244 158 73 26 223 45 223
29 0 -5 -7 -49 -15 -99 -8 -49 -15 -112 -15 -140 -1 -83 -27 -202 -58 -269
-17 -35 -67 -113 -113 -172 -105 -138 -139 -209 -139 -288 0 -94 17 -134 85
-201 69 -69 128 -103 310 -175 188 -75 251 -111 351 -202 313 -285 434 -400
520 -495 90 -99 210 -252 221 -280 2 -6 -13 -37 -35 -70 -37 -55 -64 -116 -76
-174 -10 -45 46 -144 127 -224 79 -79 145 -116 217 -123 68 -6 113 12 160 65
34 39 40 53 40 90 0 53 -18 98 -70 179 -54 83 -83 171 -136 426 -44 213 -74
320 -109 389 -53 104 -148 176 -405 304 -231 116 -302 158 -377 228 -86 81
-118 148 -118 247 0 66 4 84 38 154 20 43 67 130 103 193 117 203 206 423 320
790 136 437 179 565 190 570 12 4 154 -41 469 -152 349 -122 561 -159 782
-137 167 16 259 43 401 115 l124 62 153 3 c91 2 229 -3 339 -13 124 -11 257
-15 399 -13 211 3 212 3 267 -23 94 -44 173 -113 383 -332 111 -116 306 -315
432 -442 455 -455 610 -673 725 -1024 33 -102 54 -203 86 -429 4 -26 20 -45
78 -93 44 -35 83 -78 97 -103 l23 -44 -24 -78 c-17 -58 -23 -105 -24 -179 l-1
-100 100 -52 c135 -71 234 -103 314 -103 l64 0 -7 62 c-12 114 -47 217 -142
409 -102 207 -126 274 -145 399 -11 78 -16 89 -69 160 -146 198 -226 424 -270
763 -31 245 -58 292 -315 558 -244 251 -309 350 -322 485 l-6 64 109 -6 c319
-17 1042 -98 1252 -140 144 -29 255 -69 332 -120 160 -107 345 -360 487 -662
30 -65 59 -127 65 -140 7 -12 62 -56 123 -97 62 -41 118 -82 126 -91 10 -12
14 -47 14 -123 0 -124 19 -175 87 -236 72 -66 117 -80 248 -80 109 0 119 2
184 32 l68 33 -6 37 c-20 107 -118 247 -274 390 -145 133 -218 242 -251 377
l-18 71 -62 33 c-70 38 -160 117 -219 194 -52 68 -97 143 -212 353 -160 292
-255 412 -375 473 -86 43 -146 53 -370 61 -231 9 -249 14 -414 112 -119 70
-145 80 -294 114 -127 28 -176 56 -206 117 l-20 40 51 142 c159 447 180 530
181 726 0 147 -11 197 -81 367 -27 65 -54 139 -61 165 -18 74 -13 172 15 313
25 127 26 134 13 277 -13 160 -9 230 16 279 l17 31 106 -4 c59 -3 115 -9 124
-12 23 -10 28 -26 43 -159 8 -67 22 -135 32 -155 22 -45 72 -72 130 -72 53 0
63 16 63 102 0 138 59 122 90 -24 6 -32 20 -68 30 -80 17 -21 26 -23 107 -22
146 2 214 38 263 138 42 86 47 178 25 479 -15 200 -16 256 -6 344 14 125 30
170 108 306 l58 102 -1 85 c0 47 -8 112 -17 145 l-17 60 72 68 c159 148 444
391 873 742 484 396 576 473 758 633 188 167 162 165 -162 -12 -135 -73 -480
-260 -766 -414 -286 -154 -630 -341 -765 -416 -134 -75 -247 -136 -251 -136
-16 0 -20 64 -8 135 11 66 11 80 -2 103 -8 15 -21 28 -30 30 -25 5 -103 -55
-154 -118 -85 -106 -161 -122 -363 -76 -141 32 -277 40 -437 26 -400 -35 -677
-168 -960 -461 -132 -137 -209 -237 -343 -449 -189 -299 -260 -390 -340 -438
-43 -25 -56 -27 -142 -26 -115 1 -174 19 -398 124 -265 122 -275 125 -497 126
-170 0 -197 3 -255 23 -54 18 -286 141 -327 173 -18 14 13 87 74 178 92 137
106 173 111 282 6 131 -12 204 -104 429 -67 161 -77 195 -84 273 l-8 89 42 52
c60 72 100 147 158 288 56 136 60 158 82 375 20 194 21 304 1 341 -21 41 -106
114 -151 130 -21 7 -75 37 -119 66 -172 113 -367 158 -520 121z m3931 -2957
c56 -34 112 -104 128 -160 9 -29 16 -88 16 -131 0 -75 -1 -78 -25 -84 -14 -3
-45 -1 -70 5 -24 6 -62 11 -84 11 l-41 0 0 196 0 195 23 -6 c12 -4 36 -16 53
-26z"/>
</g>
</svg>
